<mxfile host="app.diagrams.net" agent="Mozilla/5.0 (Windows NT 10.0; Win64; x64) AppleWebKit/537.36 (KHTML, like Gecko) Chrome/131.0.0.0 Safari/537.36 Edg/131.0.0.0" version="24.8.9">
  <diagram id="1lxZCYnFscGEQPpjhnhe" name="Страница 1">
    <mxGraphModel dx="1106" dy="703" grid="1" gridSize="10" guides="1" tooltips="1" connect="1" arrows="1" fold="1" page="1" pageScale="1" pageWidth="827" pageHeight="1169" math="0" shadow="0">
      <root>
        <mxCell id="0" />
        <mxCell id="1" parent="0" />
        <mxCell id="Ij-mmcF7UM5DsKZ4tCo_-1" value="" style="ellipse;html=1;shape=startState;fillColor=#000000;strokeColor=#ff0000;" parent="1" vertex="1">
          <mxGeometry x="399" y="10" width="30" height="30" as="geometry" />
        </mxCell>
        <mxCell id="Ij-mmcF7UM5DsKZ4tCo_-2" value="" style="edgeStyle=orthogonalEdgeStyle;html=1;verticalAlign=bottom;endArrow=open;endSize=8;strokeColor=#ff0000;rounded=0;" parent="1" source="Ij-mmcF7UM5DsKZ4tCo_-1" edge="1">
          <mxGeometry relative="1" as="geometry">
            <mxPoint x="414" y="100" as="targetPoint" />
          </mxGeometry>
        </mxCell>
        <mxCell id="Ij-mmcF7UM5DsKZ4tCo_-4" value="Создание заявки" style="rounded=0;whiteSpace=wrap;html=1;" parent="1" vertex="1">
          <mxGeometry x="361" y="100" width="106" height="40" as="geometry" />
        </mxCell>
        <mxCell id="tRb4QkK3kIkZ-VAgqsCo-3" value="&lt;div style=&quot;&quot;&gt;yes&lt;/div&gt;&lt;div style=&quot;&quot;&gt;&lt;br&gt;&lt;/div&gt;" style="edgeStyle=orthogonalEdgeStyle;rounded=0;orthogonalLoop=1;jettySize=auto;html=1;entryX=0.5;entryY=0;entryDx=0;entryDy=0;align=left;" edge="1" parent="1" source="Ij-mmcF7UM5DsKZ4tCo_-7" target="Ij-mmcF7UM5DsKZ4tCo_-19">
          <mxGeometry relative="1" as="geometry">
            <mxPoint x="270" y="430" as="targetPoint" />
          </mxGeometry>
        </mxCell>
        <mxCell id="tRb4QkK3kIkZ-VAgqsCo-4" value="no&lt;div&gt;&lt;br&gt;&lt;/div&gt;" style="edgeStyle=orthogonalEdgeStyle;rounded=0;orthogonalLoop=1;jettySize=auto;html=1;entryX=0.5;entryY=0;entryDx=0;entryDy=0;" edge="1" parent="1" source="Ij-mmcF7UM5DsKZ4tCo_-7" target="Ij-mmcF7UM5DsKZ4tCo_-18">
          <mxGeometry relative="1" as="geometry" />
        </mxCell>
        <mxCell id="Ij-mmcF7UM5DsKZ4tCo_-7" value="Администратор&amp;nbsp;&lt;br&gt;принимает&amp;nbsp;&lt;div&gt;заявку?&lt;/div&gt;" style="rhombus;whiteSpace=wrap;html=1;fillColor=#ffffc0;strokeColor=#ff0000;" parent="1" vertex="1">
          <mxGeometry x="347" y="200" width="134" height="140" as="geometry" />
        </mxCell>
        <mxCell id="Ij-mmcF7UM5DsKZ4tCo_-13" value="" style="edgeStyle=orthogonalEdgeStyle;rounded=0;orthogonalLoop=1;jettySize=auto;html=1;entryX=0.5;entryY=0;entryDx=0;entryDy=0;" parent="1" edge="1" target="Ij-mmcF7UM5DsKZ4tCo_-7">
          <mxGeometry relative="1" as="geometry">
            <mxPoint x="414" y="140" as="sourcePoint" />
            <mxPoint x="414" y="170" as="targetPoint" />
          </mxGeometry>
        </mxCell>
        <mxCell id="Ij-mmcF7UM5DsKZ4tCo_-18" value="Вывести сообщение с причиной отказа" style="rounded=0;whiteSpace=wrap;html=1;" parent="1" vertex="1">
          <mxGeometry x="550" y="320" width="106" height="40" as="geometry" />
        </mxCell>
        <mxCell id="Ij-mmcF7UM5DsKZ4tCo_-20" value="добавить в план работ заявку с бригадой" style="rounded=0;whiteSpace=wrap;html=1;" parent="1" vertex="1">
          <mxGeometry x="153" y="430" width="140" height="70" as="geometry" />
        </mxCell>
        <mxCell id="Ij-mmcF7UM5DsKZ4tCo_-22" value="" style="ellipse;html=1;shape=endState;fillColor=#000000;strokeColor=#ff0000;" parent="1" vertex="1">
          <mxGeometry x="399" y="555" width="30" height="30" as="geometry" />
        </mxCell>
        <mxCell id="Ij-mmcF7UM5DsKZ4tCo_-24" value="" style="html=1;verticalAlign=bottom;labelBackgroundColor=none;endArrow=block;endFill=1;endSize=6;align=left;rounded=0;exitX=0.45;exitY=1.072;exitDx=0;exitDy=0;exitPerimeter=0;" parent="1" source="Ij-mmcF7UM5DsKZ4tCo_-18" target="Ij-mmcF7UM5DsKZ4tCo_-22" edge="1">
          <mxGeometry x="-1" relative="1" as="geometry">
            <mxPoint x="460" y="700" as="sourcePoint" />
            <mxPoint x="620" y="700" as="targetPoint" />
          </mxGeometry>
        </mxCell>
        <mxCell id="Ij-mmcF7UM5DsKZ4tCo_-26" value="" style="html=1;verticalAlign=bottom;labelBackgroundColor=none;endArrow=block;endFill=1;endSize=6;align=left;rounded=0;exitX=0.5;exitY=1;exitDx=0;exitDy=0;entryX=0;entryY=0;entryDx=0;entryDy=0;" parent="1" source="Ij-mmcF7UM5DsKZ4tCo_-20" target="Ij-mmcF7UM5DsKZ4tCo_-22" edge="1">
          <mxGeometry x="-1" relative="1" as="geometry">
            <mxPoint x="497.70000000000005" y="612.88" as="sourcePoint" />
            <mxPoint x="431.2301509571514" y="790.941354227177" as="targetPoint" />
          </mxGeometry>
        </mxCell>
        <mxCell id="tRb4QkK3kIkZ-VAgqsCo-7" style="edgeStyle=orthogonalEdgeStyle;rounded=0;orthogonalLoop=1;jettySize=auto;html=1;entryX=0.5;entryY=0;entryDx=0;entryDy=0;" edge="1" parent="1" source="Ij-mmcF7UM5DsKZ4tCo_-19" target="Ij-mmcF7UM5DsKZ4tCo_-20">
          <mxGeometry relative="1" as="geometry" />
        </mxCell>
        <mxCell id="Ij-mmcF7UM5DsKZ4tCo_-19" value="Собрать бригаду" style="rounded=0;whiteSpace=wrap;html=1;" parent="1" vertex="1">
          <mxGeometry x="170" y="320" width="106" height="40" as="geometry" />
        </mxCell>
      </root>
    </mxGraphModel>
  </diagram>
</mxfile>
